<svg xmlns="http://www.w3.org/2000/svg" viewBox="0 0 210 210" fill="none" shape-rendering="auto" width="48" height="48"><desc>"Face Generator" by "The Visual Team", licensed under "CC BY 4.0". / Remix of the original. - Created with dicebear.com</desc><metadata xmlns:dc="http://purl.org/dc/elements/1.1/" xmlns:cc="http://creativecommons.org/ns#" xmlns:rdf="http://www.w3.org/1999/02/22-rdf-syntax-ns#"><rdf:RDF><cc:Work><dc:title>Face Generator</dc:title><dc:creator><cc:Agent rdf:about="https://thevisual.team/"><dc:title>The Visual Team</dc:title></cc:Agent></dc:creator><dc:source>https://www.figma.com/community/file/986078800058673824</dc:source><cc:license rdf:resource="https://creativecommons.org/licenses/by/4.0/" /></cc:Work></rdf:RDF></metadata><mask id="viewboxMask"><rect width="210" height="210" rx="52.5" ry="52.5" x="0" y="0" fill="#fff" /></mask><g mask="url(#viewboxMask)"><rect fill="#f8b788" width="210" height="210" x="0" y="0" /><g transform="translate(86.8 138.9) scale(.71856)"><path fill-rule="evenodd" clip-rule="evenodd" d="M20 47.5c0-1.4 1.2-2.6 2.6-2.6 3.2-.1 8-.7 12-2 2-.8 3.5-1.6 4.5-2.5 1-.8 1.4-1.7 1.4-2.6 0-.8-.4-1.7-1.4-2.5-1-1-2.6-1.8-4.6-2.4-3.9-1.4-8.7-2-12-2a2.5 2.5 0 0 1 .1-5.1c3.2 0 8-.6 12-2 2-.6 3.5-1.4 4.5-2.3 1-1 1.4-1.8 1.4-2.8 0-1-.4-1.8-1.4-2.7-1-.9-2.6-1.7-4.5-2.4a42 42 0 0 0-12-1.9 2.5 2.5 0 0 1 0-5c3.6 0 9 .6 13.6 2.1 2.3.8 4.6 1.9 6.3 3.5 1.8 1.5 3 3.7 3 6.4 0 2.8-1.2 5-3 6.5a17.4 17.4 0 0 1-5.4 3.2c2 .7 3.9 1.7 5.4 3 1.7 1.6 3 3.7 3 6.4 0 2.8-1.3 4.9-3 6.4-1.8 1.6-4 2.7-6.3 3.4-4.6 1.6-10 2.2-13.5 2.3-1.4 0-2.6-1-2.6-2.4Z" fill="#000"/></g><g transform="translate(2 11) scale(.71856)"><path d="M187 76a7 7 0 1 1 13.9 0v13.8a7 7 0 1 1-13.9 0V75.9ZM88 76a7 7 0 1 1 13.9 0v13.8a7 7 0 0 1-13.9 0V75.9Z" fill="#000"/></g><g transform="translate(15 89.2) scale(.71856)"><g fill="#FFC6C6"><rect x="11" y="16" width="56.3" height="43.4" rx="21.7"/><rect x="191" y="16" width="56.3" height="43.4" rx="21.7"/></g></g><g transform="translate(80.3 79.8) scale(.71856)"><path d="M18.6 38.3A10 10 0 0 0 29 45a10 10 0 0 0 19.4 0h.9a10 10 0 0 0 9.5-6.7 10 10 0 0 1-10.4 13.4 10 10 0 0 1-19.4 0H28a10 10 0 0 1-9.5-13.4Z" fill="#000" fill-opacity=".2"/></g></g></svg>